<?xml version="1.0" standalone="no"?>
<!DOCTYPE svg PUBLIC "-//W3C//DTD SVG 20010904//EN"
 "http://www.w3.org/TR/2001/REC-SVG-20010904/DTD/svg10.dtd">
<svg version="1.0" xmlns="http://www.w3.org/2000/svg"
 width="660.000000pt" height="687.000000pt" viewBox="0 0 660.000000 687.000000"
 preserveAspectRatio="xMidYMid meet">
<metadata>
Created by potrace 1.10, written by Peter Selinger 2001-2011
</metadata>
<g transform="translate(0.000000,687.000000) scale(0.100000,-0.100000)"
fill="#ffffff" stroke="none">
<path d="M3025 6855 c-7 -12 -36 -17 -110 -21 -55 -3 -114 -10 -131 -15 -17
-5 -59 -13 -95 -19 -95 -13 -149 -26 -309 -73 -136 -41 -265 -86 -345 -122
-101 -45 -301 -145 -363 -182 -41 -24 -75 -43 -77 -43 -6 0 -186 -121 -235
-158 -118 -89 -274 -225 -375 -327 -113 -113 -274 -300 -324 -373 -13 -21 -27
-39 -30 -42 -9 -7 -123 -180 -142 -215 -9 -16 -30 -52 -46 -80 -26 -44 -116
-227 -175 -354 -47 -101 -131 -353 -171 -516 -87 -351 -117 -732 -87 -1125 14
-180 52 -414 86 -520 8 -25 14 -54 14 -65 0 -10 6 -37 14 -60 8 -22 24 -71 36
-110 28 -92 81 -231 128 -335 66 -148 171 -350 198 -381 8 -8 14 -18 14 -22 0
-10 119 -187 183 -272 224 -297 510 -565 822 -771 98 -65 122 -80 145 -90 8
-4 32 -18 52 -31 80 -50 282 -145 416 -197 150 -57 231 -83 372 -117 47 -11
108 -27 136 -35 28 -8 61 -14 73 -14 12 0 54 -6 94 -14 40 -8 168 -22 285 -32
204 -17 222 -17 420 -1 205 18 326 34 452 62 138 30 285 69 360 96 107 37 171
61 227 85 17 8 34 14 38 14 15 0 291 143 350 180 17 11 37 23 45 27 8 4 55 34
105 67 380 252 694 567 943 944 34 51 62 96 62 99 0 4 6 14 14 22 27 31 132
233 198 381 47 104 100 243 128 335 12 39 28 88 36 110 8 23 14 50 14 60 0 11
6 40 14 65 33 104 63 282 76 450 12 145 17 173 30 165 6 -4 10 73 10 209 0
168 -3 215 -12 213 -9 -1 -15 28 -21 103 -13 184 -57 420 -113 615 -20 70 -82
259 -95 292 -50 122 -51 124 -130 288 -64 134 -190 352 -241 416 -15 20 -28
41 -28 47 0 6 -4 12 -9 14 -5 2 -21 21 -36 43 -51 77 -201 250 -319 369 -103
103 -258 239 -376 328 -49 37 -229 158 -235 158 -2 0 -36 19 -77 43 -62 37
-262 137 -363 182 -170 76 -493 173 -654 195 -36 6 -78 14 -95 19 -17 5 -76
12 -131 15 -73 4 -103 10 -111 21 -17 23 -514 23 -529 0z m575 -190 c138 -15
191 -24 368 -61 113 -24 276 -71 327 -94 11 -5 48 -18 83 -29 34 -12 70 -25
80 -30 9 -5 33 -16 52 -24 58 -25 232 -113 270 -136 19 -11 44 -25 55 -30 11
-5 37 -21 58 -35 21 -14 40 -26 42 -26 17 0 271 -188 370 -273 105 -91 297
-290 387 -401 71 -87 253 -346 271 -386 4 -8 15 -28 25 -45 47 -78 116 -216
162 -327 29 -68 58 -138 66 -156 8 -18 14 -41 14 -50 0 -10 4 -22 9 -27 7 -9
31 -84 66 -210 8 -27 22 -86 30 -130 9 -44 23 -106 31 -137 8 -32 14 -76 14
-98 0 -22 7 -82 16 -132 13 -76 15 -147 11 -388 -2 -162 -9 -320 -15 -350 -6
-30 -18 -104 -27 -165 -10 -60 -23 -132 -30 -160 -8 -27 -21 -79 -30 -115 -40
-152 -107 -351 -127 -375 -4 -5 -8 -15 -8 -23 0 -11 -36 -92 -108 -242 -9 -19
-26 -51 -38 -70 -11 -19 -32 -55 -45 -80 -143 -263 -449 -629 -694 -828 -38
-31 -74 -62 -80 -68 -27 -30 -262 -194 -320 -224 -11 -6 -33 -19 -50 -30 -30
-19 -267 -138 -335 -168 -19 -8 -44 -19 -54 -25 -11 -5 -31 -13 -45 -17 -14
-5 -51 -18 -81 -29 -96 -37 -176 -21 -224 42 l-26 34 0 514 c0 425 -3 529 -16
599 -18 98 -53 218 -65 226 -5 3 -9 11 -9 19 0 17 -54 100 -87 134 -13 13 -22
29 -20 35 2 6 32 14 68 18 130 13 354 65 464 106 61 22 93 37 175 77 104 52
106 53 190 116 260 195 411 470 486 889 22 121 25 577 5 625 -7 17 -16 50 -21
75 -7 42 -13 61 -46 150 -20 56 -23 64 -34 83 -5 9 -14 25 -19 35 -6 9 -19 34
-31 56 -11 21 -48 74 -80 117 -64 82 -69 101 -47 165 51 146 45 433 -12 639
-36 130 -36 129 -111 133 -77 4 -226 -30 -327 -74 -18 -8 -50 -21 -70 -30 -21
-9 -45 -20 -53 -25 -8 -5 -28 -15 -45 -23 -16 -8 -52 -29 -80 -45 -27 -17 -57
-34 -65 -38 -8 -4 -43 -26 -77 -50 -70 -48 -75 -49 -147 -29 -81 23 -146 37
-217 46 -36 5 -84 13 -105 19 -22 6 -140 13 -264 16 -233 7 -441 -4 -585 -29
-155 -28 -230 -44 -258 -55 -45 -18 -63 -13 -130 32 -34 24 -69 46 -77 50 -8
4 -37 21 -65 38 -27 16 -63 37 -80 45 -16 8 -37 18 -45 23 -8 4 -32 15 -53 24
-20 9 -52 23 -70 31 -137 61 -367 98 -394 64 -24 -31 -58 -155 -78 -288 -25
-164 -18 -331 21 -466 8 -28 14 -61 14 -73 0 -12 -27 -57 -60 -100 -32 -43
-69 -96 -80 -117 -12 -22 -25 -46 -30 -54 -5 -8 -11 -22 -14 -30 -3 -8 -10
-22 -15 -30 -8 -14 -20 -43 -51 -130 -6 -19 -16 -55 -20 -80 -5 -25 -14 -58
-21 -75 -20 -48 -17 -504 5 -625 75 -418 230 -700 490 -893 117 -87 296 -177
411 -206 17 -4 40 -13 52 -19 12 -7 32 -12 44 -12 12 0 45 -6 73 -14 81 -23
203 -46 245 -46 60 0 72 -7 59 -36 -6 -13 -14 -24 -18 -24 -10 0 -80 -110 -80
-126 0 -7 -4 -15 -9 -18 -10 -6 -46 -121 -58 -186 -7 -39 -13 -46 -53 -66 -69
-33 -136 -51 -240 -64 -78 -9 -109 -9 -175 3 -102 19 -136 32 -210 80 -90 59
-148 120 -229 242 -126 188 -219 268 -381 326 -73 26 -184 25 -219 -2 -14 -11
-26 -28 -26 -38 0 -29 48 -84 108 -124 31 -20 83 -63 116 -95 54 -53 152 -189
176 -243 5 -13 14 -31 19 -39 5 -8 16 -32 25 -52 9 -21 22 -53 30 -70 8 -18
17 -40 20 -48 29 -74 164 -225 236 -264 192 -106 308 -131 545 -120 77 4 157
13 179 20 21 8 42 11 47 8 5 -3 9 -140 9 -306 l0 -301 -26 -34 c-54 -71 -135
-80 -259 -28 -16 7 -50 20 -75 30 -58 23 -111 46 -130 57 -8 4 -22 11 -30 14
-8 3 -19 8 -25 10 -5 2 -17 8 -25 13 -8 5 -35 18 -60 30 -25 12 -52 26 -60 31
-8 5 -55 32 -105 61 -336 197 -657 487 -913 826 -34 45 -62 85 -62 88 0 4 -13
24 -30 45 -16 21 -30 41 -30 45 0 3 -11 21 -24 38 -14 18 -30 43 -35 57 -6 14
-20 39 -31 55 -24 37 -180 349 -180 360 0 5 -14 45 -31 89 -62 160 -73 196
-133 431 -8 33 -22 103 -30 155 -8 52 -20 127 -27 165 -6 39 -13 199 -16 357
-4 235 -2 304 11 381 9 52 16 111 16 131 0 20 6 65 14 99 8 34 21 98 30 142 9
44 23 103 31 130 35 126 59 201 66 210 5 5 9 17 9 27 0 9 6 32 14 50 8 18 37
88 66 156 46 111 115 249 162 327 10 17 21 37 25 45 4 8 26 43 50 78 24 35 43
65 43 67 0 5 131 188 139 195 3 3 31 37 63 75 69 86 268 290 363 372 99 85
353 273 370 273 2 0 21 12 42 26 21 14 47 30 58 35 11 5 36 19 55 30 38 23
212 111 270 136 19 8 43 19 52 24 10 5 46 18 80 30 35 11 72 24 83 29 75 34
238 77 478 125 222 44 584 57 837 30z"/>
</g>
</svg>
